<svg xmlns="http://www.w3.org/2000/svg" width="200" height="60" viewBox="0 0 200 60">
  <metadata><?xpacket begin="﻿" id="W5M0MpCehiHzreSzNTczkc9d"?>
<x:xmpmeta xmlns:x="adobe:ns:meta/" x:xmptk="Adobe XMP Core 5.6-c142 79.160924, 2017/07/13-01:06:39        ">
   <rdf:RDF xmlns:rdf="http://www.w3.org/1999/02/22-rdf-syntax-ns#">
      <rdf:Description rdf:about=""/>
   </rdf:RDF>
</x:xmpmeta>
                                                                                                    
                                                                                                    
                                                                                                    
                                                                                                    
                                                                                                    
                                                                                                    
                                                                                                    
                                                                                                    
                                                                                                    
                                                                                                    
                                                                                                    
                                                                                                    
                                                                                                    
                                                                                                    
                                                                                                    
                                                                                                    
                                                                                                    
                                                                                                    
                                                                                                    
                                                                                                    
                           
<?xpacket end="w"?></metadata>
<defs>
    <style>
      .cls-1 {
        fill: #1d1d1b;
      }

      .cls-1, .cls-2 {
        fill-rule: evenodd;
      }

      .cls-2 {
        fill: #f07e00;
      }
    </style>
  </defs>
  <path class="cls-1" d="M42.611,9l-6.77,3.73a11.427,11.427,0,0,0-3.766-2.776,11.251,11.251,0,0,0-4.362-.779A10.179,10.179,0,0,0,20.328,11.9a9.339,9.339,0,0,0-2.811,6.991,8.983,8.983,0,0,0,2.714,6.759,9.8,9.8,0,0,0,7.121,2.626,10.329,10.329,0,0,0,8.49-3.729l6.412,4.4q-5.211,6.793-14.706,6.794-8.54,0-13.381-5.073A16.682,16.682,0,0,1,9.33,18.788,16.742,16.742,0,0,1,18.247,3.867,19.553,19.553,0,0,1,27.669,1.6a19,19,0,0,1,8.66,1.926A16.5,16.5,0,0,1,42.611,9M82.378,21.026H56.272a8.72,8.72,0,0,0,3.017,5.5,9.477,9.477,0,0,0,6.268,2.047,10.825,10.825,0,0,0,7.832-3.194l6.846,3.223a16.147,16.147,0,0,1-6.13,5.386,19.152,19.152,0,0,1-8.486,1.746,16.736,16.736,0,0,1-12.411-4.818,16.407,16.407,0,0,1-4.793-12.074A16.944,16.944,0,0,1,53.2,6.51,16,16,0,0,1,65.174,1.6a16.6,16.6,0,0,1,12.44,4.91q4.792,4.9,4.792,12.966ZM74.25,14.609a8.128,8.128,0,0,0-3.177-4.414,9.164,9.164,0,0,0-5.5-1.7,9.706,9.706,0,0,0-5.963,1.911,10.658,10.658,0,0,0-2.981,4.2H74.25Zm65.566-7.636-5.031,5.043c-2.042-2.026-3.9-3.045-5.57-3.045a3.529,3.529,0,0,0-2.143.581A1.748,1.748,0,0,0,126.3,11a1.783,1.783,0,0,0,.491,1.21,9.186,9.186,0,0,0,2.422,1.507l2.978,1.493q4.707,2.323,6.463,4.741a9.415,9.415,0,0,1,1.753,5.672,9.392,9.392,0,0,1-3.166,7.224,12.132,12.132,0,0,1-8.5,2.893,13.489,13.489,0,0,1-11.313-5.551l5-5.461a11.416,11.416,0,0,0,3.353,2.7,7.354,7.354,0,0,0,3.406,1.033,4.071,4.071,0,0,0,2.595-.776,2.246,2.246,0,0,0,.976-1.79q0-1.88-3.542-3.668l-2.735-1.378q-7.863-3.958-7.862-9.935a8.635,8.635,0,0,1,2.964-6.58,10.733,10.733,0,0,1,7.579-2.73,13.141,13.141,0,0,1,10.655,5.372M90.825,1.6h8.337v26.17h12.144v7.968H90.825V1.6ZM45.307,42.4c2.481,0,4.025,1.628,3.627,4.466L48.52,49.93a4.706,4.706,0,0,1-4.821,4.4H40.374L42.061,42.4h3.246ZM42.029,52.993h1.734c1.735,0,2.991-1.148,3.278-3.19l0.414-2.966c0.286-2.041-.589-3.095-2.308-3.095H43.333Zm7.75,1.34L51.5,42.13h1.368l-1.718,12.2H49.779ZM58.7,47.139l0.144-.941h1.321l-1.147,8.135H57.75l0.112-.893a2.27,2.27,0,0,1-2.085,1.053c-1.639,0-2.593-1.26-2.338-3.094l0.318-2.329a3.148,3.148,0,0,1,3.054-3.014A1.741,1.741,0,0,1,58.7,47.139m-3.579,2.01-0.3,2.233c-0.159,1.164.27,1.9,1.321,1.9a1.924,1.924,0,0,0,1.925-1.9l0.319-2.233c0.159-1.164-.319-1.9-1.352-1.9a1.943,1.943,0,0,0-1.91,1.9m16.9,5.184-0.955-8.725-3.484,8.725H66.057L64.864,42.4h1.48l0.891,9.092,3.58-9.092h1.273l1.081,9.092L76.622,42.4h1.527L73.63,54.333H72.024ZM82.829,55.37c-0.255,1.834-1.3,3.014-3.134,3.014a2.324,2.324,0,0,1-2.5-2.839H78.5c-0.128,1.053.286,1.675,1.257,1.675a1.7,1.7,0,0,0,1.686-1.755l0.286-1.9a2.263,2.263,0,0,1-1.909.925c-1.5,0-2.339-1.1-2.1-2.855L78.486,46.2h1.368l-0.731,5.248c-0.143,1.053.207,1.706,1.13,1.706a1.916,1.916,0,0,0,1.765-1.8L82.749,46.2h1.369Zm12.936-6.476L95,54.333H93.634l0.732-5.248c0.143-1.037-.206-1.706-1.13-1.706A1.884,1.884,0,0,0,91.5,48.957l-0.747,5.376H89.386l0.732-5.248c0.143-1.037-.223-1.706-1.13-1.706a1.93,1.93,0,0,0-1.766,1.8L86.49,54.333H85.122L86.267,46.2H87.54l-0.127.845a2.363,2.363,0,0,1,2-.989,1.983,1.983,0,0,1,1.926,1.132,2.838,2.838,0,0,1,2.29-1.132c1.527,0,2.371,1.1,2.132,2.839m6.732-1.754,0.143-.941h1.32l-1.146,8.135h-1.272l0.111-.893a2.268,2.268,0,0,1-2.083,1.053c-1.639,0-2.594-1.26-2.339-3.094l0.318-2.329a3.148,3.148,0,0,1,3.054-3.014,1.742,1.742,0,0,1,1.894,1.084m-3.58,2.01-0.3,2.233c-0.159,1.164.27,1.9,1.32,1.9a1.924,1.924,0,0,0,1.925-1.9l0.318-2.233c0.16-1.164-.318-1.9-1.352-1.9a1.943,1.943,0,0,0-1.909,1.9m11.456-2.01,0.144-.941h1.32L110.55,55.37a3.172,3.172,0,0,1-3.325,3.014,2.349,2.349,0,0,1-2.594-2.839h1.305a1.282,1.282,0,0,0,1.336,1.675,1.819,1.819,0,0,0,1.893-1.755l0.3-1.914a2.281,2.281,0,0,1-2.021.941c-1.622,0-2.593-1.26-2.338-3.094l0.334-2.329a3.145,3.145,0,0,1,3.038-3.014,1.744,1.744,0,0,1,1.893,1.084m-3.579,2.01-0.3,2.233c-0.16,1.164.27,1.9,1.32,1.9a1.924,1.924,0,0,0,1.925-1.9l0.319-2.233c0.158-1.164-.319-1.9-1.353-1.9a1.943,1.943,0,0,0-1.909,1.9m11.456-2.01L118.4,46.2h1.32l-1.145,8.135H117.3l0.112-.893a2.267,2.267,0,0,1-2.083,1.053c-1.64,0-2.594-1.26-2.339-3.094l0.317-2.329a3.149,3.149,0,0,1,3.055-3.014,1.74,1.74,0,0,1,1.893,1.084m-3.579,2.01-0.3,2.233c-0.159,1.164.271,1.9,1.321,1.9a1.924,1.924,0,0,0,1.925-1.9l0.319-2.233c0.158-1.164-.319-1.9-1.353-1.9a1.943,1.943,0,0,0-1.909,1.9m7.193,6.636c-0.286,1.834-1.336,2.615-2.721,2.615a3.2,3.2,0,0,1-1.034-.16l0.3-1.18a1.474,1.474,0,0,0,.619.111,1.4,1.4,0,0,0,1.449-1.387l1.336-9.586h1.368Zm1.861-12.361a0.907,0.907,0,0,1-.891.765,0.763,0.763,0,0,1-.763-0.91,0.9,0.9,0,0,1,.874-0.8,0.784,0.784,0,0,1,.78.941m6.173,10.91h-0.238c-0.828.431-1.385,0.734-1.48,1.387a0.554,0.554,0,0,0,.541.734,1.542,1.542,0,0,0,.795-0.208l0.128,0.734a2.478,2.478,0,0,1-1.146.255,1.213,1.213,0,0,1-1.369-1.419,2.142,2.142,0,0,1,1.5-1.579l0.095-.8a2.241,2.241,0,0,1-2.068,1.053c-1.639,0-2.61-1.26-2.339-3.093l0.3-2.33a3.17,3.17,0,0,1,3.055-3.014,1.776,1.776,0,0,1,1.909,1.084l0.127-.941h1.321Zm-0.97-2.951,0.318-2.232c0.159-1.165-.318-1.9-1.353-1.9a1.942,1.942,0,0,0-1.908,1.9l-0.3,2.232c-0.159,1.164.271,1.9,1.337,1.9a1.911,1.911,0,0,0,1.909-1.9M138.27,49.2h-1.3c0.125-1.229-.272-1.947-1.258-1.947a1.88,1.88,0,0,0-1.846,1.9l-0.3,2.233c-0.175,1.18.27,1.9,1.257,1.9,1.082,0,1.654-.815,1.829-1.947h1.305c-0.3,1.947-1.416,3.159-3.2,3.159a2.463,2.463,0,0,1-2.577-3.094l0.334-2.329a3.206,3.206,0,0,1,3.277-3.014c1.814,0,2.689,1.292,2.482,3.142m6.381,6.173c-0.254,1.834-1.3,3.014-3.134,3.014a2.324,2.324,0,0,1-2.5-2.839h1.3c-0.126,1.053.287,1.675,1.258,1.675a1.7,1.7,0,0,0,1.686-1.755l0.287-1.9a2.267,2.267,0,0,1-1.91.925c-1.5,0-2.339-1.1-2.1-2.855l0.764-5.439h1.368l-0.732,5.248c-0.143,1.053.207,1.706,1.13,1.706a1.916,1.916,0,0,0,1.766-1.8l0.732-5.152h1.368ZM153.2,49.2h-1.305c0.127-1.229-.27-1.947-1.257-1.947a1.878,1.878,0,0,0-1.845,1.9l-0.3,2.233c-0.175,1.18.27,1.9,1.257,1.9,1.081,0,1.653-.815,1.829-1.947h1.3c-0.3,1.947-1.416,3.159-3.2,3.159A2.463,2.463,0,0,1,147.1,51.4l0.334-2.329a3.206,3.206,0,0,1,3.277-3.014c1.814,0,2.689,1.292,2.482,3.142m3.343-2.154a2.278,2.278,0,0,1,1.973-.989c1.5,0,2.323,1.1,2.068,2.839l-0.764,5.439h-1.383l0.747-5.248c0.16-1.037-.206-1.706-1.129-1.706a1.931,1.931,0,0,0-1.783,1.8l-0.731,5.152h-1.369l1.718-12.2h1.369Z" transform="translate(-0.5 0)"/>
  <path id="Shape_1_copy" data-name="Shape 1 copy" class="cls-2" d="M171.465,3.166l-3.013,4.485h6.028Zm-7.31,10.881h14.626l-3.018-4.489h-8.591Zm-4.3,6.4h23.222l-3.017-4.486H162.875Zm-4.3,6.393h31.813l-3.014-4.487h-25.78Zm-1.279,1.91-3.014,4.488h40.4l-3.015-4.488H154.28Z" transform="translate(-0.5 0)"/>
</svg>
